<svg version="1.1" xmlns="http://www.w3.org/2000/svg" xmlns:xlink="http://www.w3.org/1999/xlink" width="365.03511" height="138.57262" viewBox="0,0,365.03511,138.57262"><g transform="translate(-57.77702,-110.19837)"><g data-paper-data="{&quot;isPaintingLayer&quot;:true}" fill-rule="nonzero" stroke-miterlimit="10" stroke-dasharray="" stroke-dashoffset="0" style="mix-blend-mode: normal"><g><g stroke-width="0.77378"><path d="M275.10953,163.89708c0.0913,0.3258 2.2672,8.2857 -3.232,15.6575c-3.725,4.9893 -10.2147,11.3653 -26.7984,12.796c-8.1201,0.6987 -15.3479,-1.3959 -20.5439,-4.597c0.0766,0.0472 0.1486,0.0967 0.226,0.1431l-0.0743,-0.0449c-4.8276,-2.1797 -10.949,-5.5519 -15.0137,-11.1966c0,0 -2.1875,4.5638 -11.9951,4.7541c-12.3937,0.2445 -17.397,-6.6259 -18.0377,-11.8048c-0.6507,-5.2532 0.9541,-11.2747 11.428,-13.0513c8.7685,-1.4834 13.535,1.1653 14.8535,2.0652l0.1022,0.1168c0.9664,-2.9891 2.5774,-4.3657 2.5774,-4.3657l-0.1323,-0.0472c-3.6909,-1.385 -8.5472,-3.5973 -14.4898,-7.1319c-12.4401,-7.4012 -12.3171,-20.4572 -8.8761,-25.1517c3.5618,-4.8532 14.113,-10.9506 29.0184,-2.6502c8.3878,4.6674 12.6327,11.8566 14.7428,17.2444l0.4457,-0.1764c0.5749,-0.3312 1.2017,-0.6577 1.8726,-0.9664l0.0874,-0.1532c-3.2692,-7.6806 -8.2044,-23.4735 5.8467,-24.6922c13.3632,-1.1591 12.2133,14.9433 11.1355,21.7897l0.1052,0.0163c1.7263,0.1214 3.4797,0.3745 5.2323,0.7861c-0.0387,-0.0805 -2.0319,-4.2635 0.5277,-10.357c2.0057,-4.7696 10.9893,-16.2046 18.2868,-10.1288c7.6983,6.4115 3.5192,13.6634 -0.4875,18.1111c-3.4712,3.8511 -7.4639,5.425 -9.2753,6.1198l0.0511,0.0325c0.4457,0.2801 0.8914,0.5718 1.3316,0.8829c12.2529,8.623 11.2021,26.4757 11.2021,26.4757l-0.0271,-0.1269c-0.0464,-0.1996 -0.0797,-0.3157 -0.0898,-0.349zM260.80163,135.92258c0.7405,0.3908 1.4647,0.8133 2.1689,1.2644M248.21833,132.86538c-0.1578,0.8589 -0.3381,1.7132 -0.5354,2.5628M233.22253,139.47498c-0.7367,-1.3928 -1.3967,-2.8274 -2.0103,-4.2782M205.33543,164.28858c-0.0782,-1.717 0.082,-3.4502 0.5525,-5.1061M195.74443,156.11438M194.18063,181.18338" fill="#1b75bb" stroke="#000000" stroke-linecap="round" stroke-linejoin="round"/><path d="M194.24403,181.28238c-9.8982,-0.9595 -14.0255,-7.0058 -14.6036,-11.6779c-0.6507,-5.2532 0.9541,-11.2747 11.428,-13.0513c1.5236,-0.2585 2.9265,-0.3916 4.2086,-0.431l0.0991,0.0062c-4.1754,8.0751 -4.57,17.5725 -1.1955,25.0542z" fill="#f1f1f2" stroke="#000000" stroke-linecap="butt" stroke-linejoin="miter"/><path d="M192.04493,145.92448c-10.4824,-7.5428 -10.1938,-19.449 -6.9423,-23.8866c3.3922,-4.6241 13.138,-10.3772 26.9446,-3.7273l-0.1385,0.0456c-7.9243,2.4808 -14.78,8.7213 -17.9982,17.431c-1.2334,3.3443 -1.8215,6.7613 -1.8308,10.1002z" fill="#f1f1f2" stroke="#000000" stroke-linecap="butt" stroke-linejoin="miter"/><path d="M227.79673,123.00738c-0.5834,-6.0718 1.1893,-11.6601 9.3217,-12.3642c8.2052,-0.7103 10.9398,5.0853 11.5773,11.2508l-0.0626,-0.0635c-6.8573,-2.6602 -14.3482,-2.0892 -20.8031,1.081z" fill="#f1f1f2" stroke="#000000" stroke-linecap="butt" stroke-linejoin="miter"/><path d="M264.63333,111.70868c2.5527,-1.0655 5.2625,-1.0477 7.7703,1.0423c4.9306,4.1095 4.9894,8.5611 3.3389,12.4006l-0.0836,0.0062c-2.0079,-5.5426 -5.7863,-10.3385 -11.0372,-13.4213z" fill="#f1f1f2" stroke="#000000" stroke-linecap="butt" stroke-linejoin="miter"/><path d="M264.36253,153.04248c6.7481,4.9143 9.1291,5.213 10.7432,10.8399c0,0 2.3871,8.1456 -3.2275,15.6729c-3.7257,4.9894 -10.2147,11.3646 -26.7983,12.7961c-16.5814,1.4268 -29.461,-8.7809 -28.8559,-16.3175c0.804,-10.0321 8.0752,-8.7221 21.9963,-17.3056c13.9195,-8.579 14.1122,-18.7696 14.1122,-18.7696c0,0 7.3393,9.6614 12.03,13.0838z" fill="#e6e7e8" stroke="#000000" stroke-linecap="butt" stroke-linejoin="miter"/><g stroke="none" stroke-linecap="butt" stroke-linejoin="miter"><path d="M241.30303,167.69948c0.1115,0.5285 -0.2244,1.0508 -0.7536,1.1645c-0.5316,0.1161 -1.0539,-0.2352 -1.1638,-0.7506c-0.0572,-0.2584 -0.0116,-0.5192 0.1292,-0.7374c0.1432,-0.2197 0.3614,-0.3729 0.6222,-0.4286c0.0704,-0.0147 0.1416,-0.0233 0.2135,-0.0233c0.4535,0 0.8543,0.3258 0.9525,0.7754z" fill="#ffffff"/><path d="M242.81043,167.37598c0.2901,1.3572 -0.5765,2.7005 -1.936,2.9953c-0.1765,0.038 -0.3552,0.0573 -0.5339,0.0573c-1.1808,0 -2.2169,-0.838 -2.4614,-1.9878c-0.1455,-0.6585 -0.0256,-1.3333 0.3389,-1.8974c0.366,-0.5671 0.9301,-0.9579 1.5893,-1.101c1.3247,-0.2902 2.7137,0.5996 3.0031,1.9336zM239.38563,168.11418c0.1091,0.5154 0.6322,0.8659 1.163,0.7506c0.53,-0.1138 0.8659,-0.6361 0.7544,-1.1646c-0.0982,-0.4495 -0.4983,-0.7753 -0.9525,-0.7753c-0.0712,0 -0.1424,0.0085 -0.2135,0.0232c-0.2608,0.0557 -0.479,0.2082 -0.6222,0.4287c-0.1408,0.2182 -0.1864,0.479 -0.1292,0.7374z" fill="#231f20"/></g><g stroke="none" stroke-linecap="butt" stroke-linejoin="miter"><path d="M265.23843,166.22458c0.1107,0.5278 -0.2244,1.0508 -0.7537,1.1654c-0.5308,0.1153 -1.0531,-0.2353 -1.1637,-0.7514c-0.0565,-0.2584 -0.0116,-0.5192 0.1292,-0.7374c0.1439,-0.2197 0.3621,-0.373 0.6221,-0.4287c0.0712,-0.0154 0.1424,-0.0232 0.2136,-0.0232c0.4542,0 0.855,0.3258 0.9525,0.7753z" fill="#ffffff"/><path d="M266.74573,165.89968c0.291,1.3587 -0.5764,2.702 -1.936,2.996c-0.1764,0.0372 -0.3551,0.0565 -0.5339,0.0565c-1.1808,0 -2.2161,-0.8372 -2.4614,-1.9878c-0.1447,-0.6585 -0.0255,-1.3332 0.3389,-1.8973c0.366,-0.5672 0.9301,-0.9587 1.5902,-1.1011c1.3247,-0.2902 2.7136,0.5997 3.0022,1.9337zM263.32023,166.63778c0.1107,0.5162 0.6337,0.8675 1.163,0.7506c0.53,-0.1137 0.8659,-0.6368 0.7544,-1.1645c-0.0975,-0.4496 -0.4975,-0.7754 -0.9525,-0.7754c-0.0704,0 -0.1416,0.0078 -0.2135,0.0233c-0.26,0.0557 -0.4782,0.2089 -0.6222,0.4286c-0.1408,0.2182 -0.1857,0.479 -0.1292,0.7374z" fill="#231f20"/></g><path d="M241.26673,175.42488c0,0 4.2589,-2.7415 12.2265,-3.9053c7.9707,-1.1637 11.6702,1.6706 11.6702,1.6706" fill="none" stroke="#231f20" stroke-linecap="round" stroke-linejoin="miter"/><path d="M262.32823,166.78178c-0.5292,0 -1.0368,-0.3041 -1.2713,-0.8187c-0.3157,-0.7003 -0.0062,-1.5267 0.6949,-1.8431l4.4492,-2.0134c0.6979,-0.3188 1.5267,-0.0062 1.8439,0.6933c0.3157,0.701 0.0062,1.5267 -0.6948,1.8439l-4.4493,2.0134c-0.1857,0.0851 -0.3807,0.1246 -0.5726,0.1246z" fill="#231f20" stroke="none" stroke-linecap="butt" stroke-linejoin="miter"/><path d="M242.09393,168.17768c-0.1742,0 -0.3459,-0.0318 -0.5138,-0.0991l-4.5336,-1.8013c-0.715,-0.284 -1.064,-1.0942 -0.78,-1.8091c0.284,-0.7158 1.1003,-1.0624 1.8076,-0.7808l4.5335,1.8014c0.715,0.284 1.064,1.0941 0.78,1.8091c-0.2166,0.5463 -0.7413,0.8798 -1.2937,0.8798z" fill="#231f20" stroke="none" stroke-linecap="butt" stroke-linejoin="miter"/></g><text transform="translate(58.07021,214.23262) scale(0.58639,0.58639)" font-size="40" xml:space="preserve" fill="#cc0000" fill-rule="nonzero" stroke="none" stroke-width="1" stroke-linecap="butt" stroke-linejoin="miter" stroke-miterlimit="10" stroke-dasharray="" stroke-dashoffset="0" font-family="&quot;Microsoft YaHei&quot;, &quot;微软雅黑&quot;, STXihei, &quot;华文细黑&quot;" font-weight="normal" text-anchor="start" style="mix-blend-mode: normal"><tspan x="0" dy="0">              服务器内部错误!</tspan><tspan x="0" dy="48px">发邮件到s@saobby.com反馈问题!</tspan></text></g></g></g></svg>